# xmcd
#
# Track frame offsets: 
#        150
#        16197
#        31932
#        46552
#        66660
#        94485
#        109420
#        126955
#        145240
#        168672
#        198215
#        219372
#        231062
#        253955
#
# Disc length: 3741 seconds
#
# Revision: 4
# Processed by: cddbd v1.5PL3 Copyright (c) Steve Scherf et al.
# Submitted via: ExactAudioCopy v0.95a5
#
DISCID=cb0e9b0e
DTITLE=Bryan Adams - So Far So Good
DYEAR=1993
DGENRE=Rock
TTITLE0=Summer Of '69
TTITLE1=Straight from the Heart
TTITLE2=It's Only Love
TTITLE3=Can't Stop This Thing We Started
TTITLE4=Do I Have to Say the Words?
TTITLE5=This Time
TTITLE6=Run to You
TTITLE7=Heaven
TTITLE8=Cuts Like A Knife
TTITLE9=(Everything I Do) I Do It For You
TTITLE10=Somebody
TTITLE11=Kids Wanna Rock
TTITLE12=Heat of the Night
TTITLE13=Please Forgive Me
EXTD=added year.\nactually, category should be rock...
EXTT0=
EXTT1=
EXTT2=
EXTT3=
EXTT4=
EXTT5=
EXTT6=
EXTT7=
EXTT8=
EXTT9=
EXTT10=
EXTT11=
EXTT12=
EXTT13=
PLAYORDER=
